# xmcd
#
# Track frame offsets:
#	150
#	23420
#	52603
#	80123
#	99293
#	117908
#	141100
#	167443
#	192060
#	211520
#	231855
#	251450
#
# Disc length: 3730 seconds
#
# Revision: 2
# Processed by: cddbd v1.5.2PL0 Copyright (c) Steve Scherf et al.
# Submitted via: EZCDAudioConverter 8.0.2.1
#
DISCID=850e900c
DTITLE=Elvis Phương, Hương Lan - Chiếc Bóng Bên Đường
DYEAR=2003
DGENRE=World Pop
TTITLE0=Elvis Phương, Hương Lan - Chờ người
TTITLE1=Hương Lan - Thoáng mây bay
TTITLE2=Elvis Phương - Đêm lang thang
TTITLE3=Hương Lan - Một đời tan vỡ
TTITLE4=Elvis Phương - Để quên con tim
TTITLE5=Hương Lan - Nếu mình thương nhau
TTITLE6=Elvis Phương, Hương Lan - Tôi vẫn nhớ
TTITLE7=Elvis Phương - Bài ca cho người kỹ nữ
TTITLE8=Hương Lan - Đàn không tiếng hát
TTITLE9=Elvis Phương - Paris và Em
TTITLE10=Hương Lan - Biết nói gì đây
TTITLE11=Elvis Phương - Chiếc Bóng Bên Ðường
EXTD=
EXTT0=
EXTT1=
EXTT2=
EXTT3=
EXTT4=
EXTT5=
EXTT6=
EXTT7=
EXTT8=
EXTT9=
EXTT10=
EXTT11=
PLAYORDER=
